<svg width="34" height="35" viewBox="0 0 34 35" fill="none" xmlns="http://www.w3.org/2000/svg">
<path d="M27 17.0609C27 11.503 22.5242 7 17 7C11.4758 7 7 11.503 7 17.0609C7 22.0824 10.6569 26.2446 15.4375 27V19.9692H12.8972V17.0609H15.4375V14.8442C15.4375 12.3229 16.9294 10.9302 19.2145 10.9302C20.3089 10.9302 21.4532 11.1266 21.4532 11.1266V13.6012H20.1919C18.95 13.6012 18.5625 14.3769 18.5625 15.1724V17.0609H21.3359L20.8923 19.9692H18.5625V27C23.3431 26.2446 27 22.0824 27 17.0609Z" fill="#FF9900"/>
<path d="M33.3912 17.5C33.3912 26.9041 26.0132 34.5 16.9456 34.5C7.878 34.5 0.5 26.9041 0.5 17.5C0.5 8.09586 7.878 0.5 16.9456 0.5C26.0132 0.5 33.3912 8.09586 33.3912 17.5Z" stroke="#FF9900"/>
</svg>
