<svg width="315" height="42" viewBox="0 0 315 42" fill="none" xmlns="http://www.w3.org/2000/svg">
<path d="M35.2 30.3252L27.2738 26.8006C26.9352 26.6509 26.5589 26.6193 26.2016 26.7107C25.8442 26.8021 25.5251 27.0114 25.2923 27.3073L21.7821 31.757C16.2733 29.062 11.8399 24.4621 9.24249 18.7463L13.5311 15.1042C13.8168 14.8632 14.019 14.5321 14.1071 14.1611C14.1952 13.7901 14.1644 13.3995 14.0194 13.0483L10.6225 4.8243C10.4633 4.44571 10.1819 4.1366 9.82659 3.95028C9.47131 3.76396 9.06451 3.7121 8.67634 3.80365L1.31631 5.56592C0.942061 5.65559 0.608154 5.87423 0.369088 6.18616C0.130021 6.49809 -8.62121e-05 6.88488 4.28594e-08 7.28341C4.28594e-08 26.1177 14.713 41.3541 32.837 41.3541C33.2212 41.3543 33.5942 41.2194 33.895 40.9713C34.1958 40.7233 34.4066 40.3767 34.493 39.9883L36.1915 32.3518C36.2792 31.9471 36.2281 31.5233 36.0472 31.1534C35.8662 30.7835 35.5666 30.4906 35.2 30.3252Z" fill="#FF9900"/>
<path d="M173.193 5.97511C169.486 2.1202 164.55 0 159.305 0C148.477 0 139.666 9.14164 139.666 20.376C139.666 23.9647 140.569 27.4708 142.285 30.5639L139.498 41.119L149.91 38.2829C152.776 39.9075 156.005 40.7611 159.296 40.7611H159.305C170.123 40.7611 179.129 31.6194 179.129 20.3851C179.129 14.9424 176.899 9.83002 173.193 5.97511ZM159.305 37.3284C156.368 37.3284 153.493 36.5115 150.989 34.9695L150.397 34.6024L144.222 36.282L145.867 30.0316L145.478 29.3891C143.842 26.6907 142.984 23.5792 142.984 20.376C142.984 11.0416 150.308 3.44188 159.313 3.44188C163.675 3.44188 167.77 5.20413 170.849 8.40738C173.927 11.6106 175.82 15.8602 175.811 20.3851C175.811 29.7287 168.301 37.3284 159.305 37.3284ZM168.257 24.6439C167.77 24.3869 165.355 23.157 164.904 22.9918C164.453 22.8174 164.126 22.7348 163.798 23.2488C163.471 23.7628 162.533 24.9009 162.241 25.2497C161.958 25.5893 161.666 25.6352 161.18 25.3782C158.296 23.8821 156.403 22.7073 154.501 19.3204C153.997 18.421 155.005 18.4852 155.943 16.5394C156.102 16.1998 156.023 15.9061 155.899 15.6491C155.775 15.3921 154.793 12.8864 154.386 11.8676C153.988 10.8764 153.581 11.014 153.28 10.9957C152.997 10.9773 152.67 10.9773 152.343 10.9773C152.015 10.9773 151.485 11.1058 151.034 11.6106C150.582 12.1246 149.317 13.3545 149.317 15.8602C149.317 18.3659 151.078 20.789 151.317 21.1286C151.564 21.4682 154.775 26.6081 159.703 28.82C162.816 30.2152 164.037 30.3345 165.594 30.0958C166.541 29.949 168.496 28.8659 168.903 27.6727C169.309 26.4796 169.309 25.4608 169.186 25.2497C169.071 25.0202 168.743 24.8917 168.257 24.6439Z" fill="#FF9900"/>
<path d="M314.887 10.6579L308.907 39.9185C308.456 41.9836 307.279 42.4976 305.608 41.5247L296.496 34.5583L292.1 38.9456C291.613 39.4504 291.206 39.8726 290.269 39.8726L290.923 30.2445L307.81 14.4118C308.544 13.7326 307.651 13.3563 306.669 14.0355L285.792 27.6745L276.805 24.7558C274.85 24.1225 274.815 22.7274 277.212 21.7545L312.366 7.70242C313.994 7.06911 315.418 8.07873 314.887 10.6579Z" fill="#FF9900"/>
</svg>
