<svg width="34" height="35" viewBox="0 0 34 35" fill="none" xmlns="http://www.w3.org/2000/svg">
<path d="M33.3912 17.5C33.3912 26.9041 26.0132 34.5 16.9456 34.5C7.878 34.5 0.5 26.9041 0.5 17.5C0.5 8.09586 7.878 0.5 16.9456 0.5C26.0132 0.5 33.3912 8.09586 33.3912 17.5Z" stroke="#FF9900"/>
<path d="M16.5562 13.5078C14.0718 13.5078 12.0679 15.5117 12.0679 17.9961C12.0679 20.4805 14.0718 22.4844 16.5562 22.4844C19.0405 22.4844 21.0444 20.4805 21.0444 17.9961C21.0444 15.5117 19.0405 13.5078 16.5562 13.5078ZM16.5562 20.9141C14.9507 20.9141 13.6382 19.6055 13.6382 17.9961C13.6382 16.3867 14.9468 15.0781 16.5562 15.0781C18.1655 15.0781 19.4741 16.3867 19.4741 17.9961C19.4741 19.6055 18.1616 20.9141 16.5562 20.9141ZM22.2749 13.3242C22.2749 13.9062 21.8062 14.3711 21.228 14.3711C20.646 14.3711 20.1812 13.9023 20.1812 13.3242C20.1812 12.7461 20.6499 12.2773 21.228 12.2773C21.8062 12.2773 22.2749 12.7461 22.2749 13.3242ZM25.2476 14.3867C25.1812 12.9844 24.8608 11.7422 23.8335 10.7187C22.8101 9.69531 21.5679 9.375 20.1655 9.30469C18.7202 9.22266 14.3882 9.22266 12.9429 9.30469C11.5444 9.37109 10.3022 9.69141 9.2749 10.7148C8.24756 11.7383 7.93115 12.9805 7.86084 14.3828C7.77881 15.8281 7.77881 20.1602 7.86084 21.6055C7.92725 23.0078 8.24756 24.25 9.2749 25.2734C10.3022 26.2969 11.5405 26.6172 12.9429 26.6875C14.3882 26.7695 18.7202 26.7695 20.1655 26.6875C21.5679 26.6211 22.8101 26.3008 23.8335 25.2734C24.8569 24.25 25.1772 23.0078 25.2476 21.6055C25.3296 20.1602 25.3296 15.832 25.2476 14.3867ZM23.3804 23.1562C23.0757 23.9219 22.4858 24.5117 21.7163 24.8203C20.564 25.2773 17.8296 25.1719 16.5562 25.1719C15.2827 25.1719 12.5444 25.2734 11.396 24.8203C10.6304 24.5156 10.0405 23.9258 9.73193 23.1562C9.2749 22.0039 9.38037 19.2695 9.38037 17.9961C9.38037 16.7227 9.27881 13.9844 9.73193 12.8359C10.0366 12.0703 10.6265 11.4805 11.396 11.1719C12.5483 10.7148 15.2827 10.8203 16.5562 10.8203C17.8296 10.8203 20.5679 10.7187 21.7163 11.1719C22.4819 11.4766 23.0718 12.0664 23.3804 12.8359C23.8374 13.9883 23.7319 16.7227 23.7319 17.9961C23.7319 19.2695 23.8374 22.0078 23.3804 23.1562Z" fill="#FF9900"/>
</svg>
