<svg width="202" height="36" viewBox="0 0 202 36" fill="none" xmlns="http://www.w3.org/2000/svg">
<path d="M27 18.0609C27 12.503 22.5242 8 17 8C11.4758 8 7 12.503 7 18.0609C7 23.0824 10.6569 27.2446 15.4375 28V20.9692H12.8972V18.0609H15.4375V15.8442C15.4375 13.3229 16.9294 11.9302 19.2145 11.9302C20.3089 11.9302 21.4532 12.1266 21.4532 12.1266V14.6012H20.1919C18.95 14.6012 18.5625 15.3769 18.5625 16.1724V18.0609H21.3359L20.8923 20.9692H18.5625V28C23.3431 27.2446 27 23.0824 27 18.0609Z" fill="#FF9900"/>
<path d="M33.3912 18.5C33.3912 27.9041 26.0132 35.5 16.9456 35.5C7.878 35.5 0.5 27.9041 0.5 18.5C0.5 9.09586 7.878 1.5 16.9456 1.5C26.0132 1.5 33.3912 9.09586 33.3912 18.5Z" stroke="#FF9900"/>
<path d="M145.391 17.5C145.391 26.9041 138.013 34.5 128.946 34.5C119.878 34.5 112.5 26.9041 112.5 17.5C112.5 8.09586 119.878 0.5 128.946 0.5C138.013 0.5 145.391 8.09586 145.391 17.5Z" stroke="#FF9900"/>
<g clip-path="url(#clip0_1_229)">
<path d="M138.424 13.4196C138.206 12.5984 137.563 11.9517 136.748 11.7322C135.269 11.3334 129.339 11.3334 129.339 11.3334C129.339 11.3334 123.409 11.3334 121.93 11.7322C121.114 11.9517 120.472 12.5984 120.254 13.4196C119.857 14.908 119.857 18.0135 119.857 18.0135C119.857 18.0135 119.857 21.119 120.254 22.6074C120.472 23.4286 121.114 24.0484 121.93 24.2679C123.409 24.6667 129.339 24.6667 129.339 24.6667C129.339 24.6667 135.269 24.6667 136.748 24.2679C137.563 24.0484 138.206 23.4286 138.424 22.6074C138.82 21.119 138.82 18.0135 138.82 18.0135C138.82 18.0135 138.82 14.908 138.424 13.4196ZM127.4 20.8331V15.194L132.356 18.0136L127.4 20.8331Z" fill="#FF9900"/>
</g>
<path d="M89.3912 18.5C89.3912 27.9041 82.0132 35.5 72.9456 35.5C63.878 35.5 56.5 27.9041 56.5 18.5C56.5 9.09586 63.878 1.5 72.9456 1.5C82.0132 1.5 89.3912 9.09586 89.3912 18.5Z" stroke="#FF9900"/>
<path d="M72.5562 14.5078C70.0718 14.5078 68.0679 16.5117 68.0679 18.9961C68.0679 21.4805 70.0718 23.4844 72.5562 23.4844C75.0405 23.4844 77.0444 21.4805 77.0444 18.9961C77.0444 16.5117 75.0405 14.5078 72.5562 14.5078ZM72.5562 21.9141C70.9507 21.9141 69.6382 20.6055 69.6382 18.9961C69.6382 17.3867 70.9468 16.0781 72.5562 16.0781C74.1655 16.0781 75.4741 17.3867 75.4741 18.9961C75.4741 20.6055 74.1616 21.9141 72.5562 21.9141ZM78.2749 14.3242C78.2749 14.9062 77.8062 15.3711 77.228 15.3711C76.646 15.3711 76.1812 14.9023 76.1812 14.3242C76.1812 13.7461 76.6499 13.2773 77.228 13.2773C77.8062 13.2773 78.2749 13.7461 78.2749 14.3242ZM81.2476 15.3867C81.1812 13.9844 80.8608 12.7422 79.8335 11.7187C78.8101 10.6953 77.5679 10.375 76.1655 10.3047C74.7202 10.2227 70.3882 10.2227 68.9429 10.3047C67.5444 10.3711 66.3022 10.6914 65.2749 11.7148C64.2476 12.7383 63.9312 13.9805 63.8608 15.3828C63.7788 16.8281 63.7788 21.1602 63.8608 22.6055C63.9272 24.0078 64.2476 25.25 65.2749 26.2734C66.3022 27.2969 67.5405 27.6172 68.9429 27.6875C70.3882 27.7695 74.7202 27.7695 76.1655 27.6875C77.5679 27.6211 78.8101 27.3008 79.8335 26.2734C80.8569 25.25 81.1772 24.0078 81.2476 22.6055C81.3296 21.1602 81.3296 16.832 81.2476 15.3867ZM79.3804 24.1562C79.0757 24.9219 78.4858 25.5117 77.7163 25.8203C76.564 26.2773 73.8296 26.1719 72.5562 26.1719C71.2827 26.1719 68.5444 26.2734 67.396 25.8203C66.6304 25.5156 66.0405 24.9258 65.7319 24.1562C65.2749 23.0039 65.3804 20.2695 65.3804 18.9961C65.3804 17.7227 65.2788 14.9844 65.7319 13.8359C66.0366 13.0703 66.6265 12.4805 67.396 12.1719C68.5483 11.7148 71.2827 11.8203 72.5562 11.8203C73.8296 11.8203 76.5679 11.7187 77.7163 12.1719C78.4819 12.4766 79.0718 13.0664 79.3804 13.8359C79.8374 14.9883 79.7319 17.7227 79.7319 18.9961C79.7319 20.2695 79.8374 23.0078 79.3804 24.1562Z" fill="#FF9900"/>
<path d="M201.391 18.5C201.391 27.9041 194.013 35.5 184.946 35.5C175.878 35.5 168.5 27.9041 168.5 18.5C168.5 9.09586 175.878 1.5 184.946 1.5C194.013 1.5 201.391 9.09586 201.391 18.5Z" stroke="#FF9900"/>
<g clip-path="url(#clip1_1_229)">
<path d="M192.835 13.9264C192.848 14.104 192.848 14.2817 192.848 14.4594C192.848 19.8781 188.724 26.1218 181.186 26.1218C178.863 26.1218 176.706 25.4492 174.891 24.2817C175.221 24.3198 175.538 24.3325 175.881 24.3325C177.797 24.3325 179.561 23.6853 180.97 22.5812C179.168 22.5431 177.658 21.3629 177.137 19.7386C177.391 19.7766 177.645 19.802 177.911 19.802C178.279 19.802 178.647 19.7512 178.99 19.6624C177.112 19.2817 175.703 17.632 175.703 15.6396V15.5888C176.249 15.8934 176.883 16.0838 177.556 16.1091C176.452 15.3731 175.729 14.1167 175.729 12.6954C175.729 11.934 175.932 11.236 176.287 10.6269C178.305 13.1142 181.338 14.7385 184.739 14.9162C184.675 14.6117 184.637 14.2944 184.637 13.9772C184.637 11.7183 186.465 9.87817 188.736 9.87817C189.916 9.87817 190.982 10.3731 191.731 11.1726C192.658 10.9949 193.546 10.6523 194.333 10.1827C194.028 11.1345 193.381 11.934 192.531 12.4416C193.356 12.3528 194.155 12.1243 194.891 11.8071C194.333 12.6193 193.635 13.3426 192.835 13.9264Z" fill="#FF9900"/>
</g>
<defs>
<clipPath id="clip0_1_229">
<rect width="20" height="20" fill="white" transform="translate(119.339 8)"/>
</clipPath>
<clipPath id="clip1_1_229">
<rect width="20" height="20" fill="white" transform="translate(174.891 8)"/>
</clipPath>
</defs>
</svg>
