<svg width="34" height="35" viewBox="0 0 34 35" fill="none" xmlns="http://www.w3.org/2000/svg">
<path d="M33.3912 17.5C33.3912 26.9041 26.0132 34.5 16.9456 34.5C7.878 34.5 0.5 26.9041 0.5 17.5C0.5 8.09587 7.878 0.5 16.9456 0.5C26.0132 0.5 33.3912 8.09587 33.3912 17.5Z" stroke="#FF9900"/>
<g clip-path="url(#clip0_1_241)">
<path d="M24.8353 12.9264C24.8479 13.104 24.8479 13.2817 24.8479 13.4594C24.8479 18.8781 20.7236 25.1218 13.1855 25.1218C10.8632 25.1218 8.70584 24.4492 6.89111 23.2817C7.22107 23.3198 7.5383 23.3325 7.88096 23.3325C9.79717 23.3325 11.5612 22.6853 12.9698 21.5812C11.1678 21.5431 9.6576 20.3629 9.13729 18.7386C9.39111 18.7766 9.6449 18.802 9.91143 18.802C10.2794 18.802 10.6475 18.7512 10.9901 18.6624C9.11193 18.2817 7.70326 16.632 7.70326 14.6396V14.5888C8.24893 14.8934 8.8835 15.0838 9.55604 15.1091C8.45197 14.3731 7.72865 13.1167 7.72865 11.6954C7.72865 10.934 7.93166 10.236 8.28701 9.62688C10.3048 12.1142 13.3378 13.7385 16.7388 13.9162C16.6753 13.6117 16.6372 13.2944 16.6372 12.9772C16.6372 10.7183 18.4647 8.87817 20.7362 8.87817C21.9164 8.87817 22.9824 9.3731 23.7312 10.1726C24.6575 9.99493 25.5458 9.65228 26.3327 9.18274C26.0281 10.1345 25.3809 10.934 24.5306 11.4416C25.3555 11.3528 26.155 11.1243 26.891 10.8071C26.3328 11.6193 25.6347 12.3426 24.8353 12.9264Z" fill="#FF9900"/>
</g>
<defs>
<clipPath id="clip0_1_241">
<rect width="20" height="20" fill="white" transform="translate(6.89111 7)"/>
</clipPath>
</defs>
</svg>
