<svg width="26" height="18" viewBox="0 0 26 18" fill="none" xmlns="http://www.w3.org/2000/svg">
<path d="M16.6306 8.75144C15.9704 8.75144 15.3493 8.39988 15.0134 7.83738L12.5017 3.67332L9.99384 7.83738C9.654 8.40379 9.0329 8.75535 8.37275 8.75535C8.19697 8.75535 8.02118 8.73191 7.85322 8.68113L2.50165 7.14988V14.103C2.50165 14.6772 2.89228 15.1772 3.44697 15.3139L11.8923 17.4272C12.2907 17.5249 12.7087 17.5249 13.1032 17.4272L21.5563 15.3139C22.111 15.1733 22.5017 14.6733 22.5017 14.103V7.14988L17.1501 8.67723C16.9821 8.72801 16.8063 8.75144 16.6306 8.75144ZM24.9352 4.36863L22.9235 0.353006C22.8024 0.110819 22.5407 -0.0298061 22.2712 0.00535011L12.5017 1.25144L16.0837 7.19285C16.2321 7.43894 16.529 7.55613 16.8063 7.47801L24.5368 5.27097C24.9235 5.15769 25.111 4.72801 24.9352 4.36863ZM2.07978 0.353006L0.0680596 4.36863C-0.111628 4.72801 0.0797784 5.15769 0.462591 5.26707L8.19306 7.4741C8.4704 7.55223 8.76728 7.43504 8.91572 7.18894L12.5017 1.25144L2.72822 0.00535011C2.45868 -0.0258999 2.20087 0.110819 2.07978 0.353006Z" fill="#FF9900"/>
</svg>
