<svg width="9" height="7" viewBox="0 0 9 7" fill="none" xmlns="http://www.w3.org/2000/svg">
<path d="M3.54515 1.99447L2.44984 0.753346C2.4048 0.702289 2.34108 0.660034 2.26489 0.630696C2.1887 0.601359 2.10263 0.585938 2.01507 0.585938H0.253973C0.0487891 0.585938 -0.0713109 0.742896 0.0462539 0.857195L1.80925 2.56963C2.28014 2.27047 2.87906 2.06514 3.54515 1.99447ZM7.85829 0.585938H6.0972C5.91911 0.585938 5.75401 0.649497 5.66243 0.753346L4.56711 1.99447C5.23321 2.06514 5.83212 2.27047 6.30302 2.56952L8.06601 0.857195C8.18358 0.742896 8.06348 0.585938 7.85829 0.585938ZM4.05613 2.30957C2.51607 2.30957 1.26753 3.15846 1.26753 4.20557C1.26753 5.25268 2.51607 6.10157 4.05613 6.10157C5.5962 6.10157 6.84473 5.25268 6.84473 4.20557C6.84473 3.15846 5.5962 2.30957 4.05613 2.30957ZM5.52205 4.00369L4.92107 4.40185L5.0632 4.96441C5.08855 5.06524 4.93232 5.14226 4.79939 5.09465L4.05613 4.8291L3.31304 5.09465C3.17994 5.14259 3.02388 5.06513 3.04923 4.96441L3.19135 4.40185L2.59038 4.00369C2.48232 3.93216 2.54205 3.80731 2.69099 3.79266L3.5217 3.71035L3.89294 3.19843C3.92637 3.15232 3.99101 3.12959 4.05582 3.12959C4.12094 3.12959 4.18606 3.15265 4.21949 3.19843L4.59072 3.71035L5.42144 3.79266C5.57037 3.80731 5.63011 3.93216 5.52205 4.00369Z" fill="#823E00"/>
</svg>
