<svg width="25" height="20" viewBox="0 0 25 20" fill="none" xmlns="http://www.w3.org/2000/svg">
<path d="M8.75 10C11.5117 10 13.75 7.76172 13.75 5C13.75 2.23828 11.5117 0 8.75 0C5.98828 0 3.75 2.23828 3.75 5C3.75 7.76172 5.98828 10 8.75 10ZM12.25 11.25H11.5977C10.7305 11.6484 9.76562 11.875 8.75 11.875C7.73438 11.875 6.77344 11.6484 5.90234 11.25H5.25C2.35156 11.25 0 13.6016 0 16.5V18.125C0 19.1602 0.839844 20 1.875 20H15.625C16.6602 20 17.5 19.1602 17.5 18.125V16.5C17.5 13.6016 15.1484 11.25 12.25 11.25ZM24.8672 6.23438L23.7812 5.13672C23.6016 4.95312 23.3086 4.95312 23.125 5.13281L19.0312 9.19531L17.2539 7.40625C17.0742 7.22266 16.7812 7.22266 16.5977 7.40234L15.5 8.49219C15.3164 8.67188 15.3164 8.96484 15.4961 9.14844L18.6875 12.3633C18.8672 12.5469 19.1602 12.5469 19.3438 12.3672L24.8633 6.89062C25.043 6.70703 25.0469 6.41406 24.8672 6.23438Z" fill="#FF9900"/>
</svg>
