<svg width="9" height="6" viewBox="0 0 9 6" fill="none" xmlns="http://www.w3.org/2000/svg">
<path d="M6.8422 4.63355H1.45137C1.33734 4.63355 1.24404 4.70142 1.24404 4.78437V5.08601C1.24404 5.16896 1.33734 5.23683 1.45137 5.23683H6.8422C6.95623 5.23683 7.04953 5.16896 7.04953 5.08601V4.78437C7.04953 4.70142 6.95623 4.63355 6.8422 4.63355ZM7.67155 1.61719C7.32815 1.61719 7.04953 1.81985 7.04953 2.06964C7.04953 2.13657 7.07027 2.19878 7.10655 2.25628L6.16834 2.66538C5.96878 2.7521 5.7109 2.70308 5.59557 2.55603L4.53943 1.21187C4.67809 1.12892 4.7688 1.00449 4.7688 0.863099C4.7688 0.613306 4.49019 0.410645 4.14679 0.410645C3.80338 0.410645 3.52477 0.613306 3.52477 0.863099C3.52477 1.00449 3.61548 1.12892 3.75414 1.21187L2.698 2.55603C2.58267 2.70308 2.3235 2.7521 2.12523 2.66538L1.18831 2.25628C1.2233 2.19973 1.24533 2.13657 1.24533 2.06964C1.24533 1.81985 0.966719 1.61719 0.623314 1.61719C0.279908 1.61719 0 1.81985 0 2.06964C0 2.31944 0.278612 2.5221 0.622018 2.5221C0.65571 2.5221 0.689403 2.51833 0.7218 2.51456L1.65871 4.33192H6.63486L7.57177 2.51456C7.60417 2.51833 7.63786 2.5221 7.67155 2.5221C8.01496 2.5221 8.29357 2.31944 8.29357 2.06964C8.29357 1.81985 8.01496 1.61719 7.67155 1.61719Z" fill="#0088B4"/>
</svg>
