<svg width="9" height="7" viewBox="0 0 9 7" fill="none" xmlns="http://www.w3.org/2000/svg">
<path d="M3.64708 2.32699L2.52027 1.08587C2.47394 1.03481 2.40839 0.992554 2.33001 0.963216C2.25162 0.933878 2.16308 0.918458 2.073 0.918457H0.261275C0.0501917 0.918457 -0.0733611 1.07542 0.0475837 1.18971L1.86127 2.90215C2.3457 2.60299 2.96183 2.39766 3.64708 2.32699ZM8.08422 0.918457H6.27249C6.08928 0.918457 5.91944 0.982016 5.82522 1.08587L4.69842 2.32699C5.38366 2.39766 5.9998 2.60299 6.48423 2.90204L8.29791 1.18971C8.41886 1.07542 8.2953 0.918457 8.08422 0.918457ZM4.17275 2.64209C2.5884 2.64209 1.30398 3.49098 1.30398 4.53809C1.30398 5.5852 2.5884 6.43409 4.17275 6.43409C5.75709 6.43409 7.04152 5.5852 7.04152 4.53809C7.04152 3.49098 5.75709 2.64209 4.17275 2.64209ZM5.68081 4.33621L5.06256 4.73437L5.20877 5.29692C5.23484 5.39776 5.07413 5.47478 4.93737 5.42717L4.17275 5.16162L3.40828 5.42717C3.27137 5.47511 3.11081 5.39765 3.13689 5.29692L3.2831 4.73437L2.66485 4.33621C2.55368 4.26468 2.61513 4.13983 2.76835 4.12517L3.62295 4.04287L4.00486 3.53095C4.03925 3.48484 4.10575 3.46211 4.17242 3.46211C4.23941 3.46211 4.30641 3.48517 4.3408 3.53095L4.7227 4.04287L5.5773 4.12517C5.73052 4.13983 5.79197 4.26468 5.68081 4.33621Z" fill="#DD7903"/>
</svg>
