<svg width="34" height="35" viewBox="0 0 34 35" fill="none" xmlns="http://www.w3.org/2000/svg">
<path d="M33.3912 17.5C33.3912 26.9041 26.0132 34.5 16.9456 34.5C7.878 34.5 0.5 26.9041 0.5 17.5C0.5 8.09586 7.878 0.5 16.9456 0.5C26.0132 0.5 33.3912 8.09586 33.3912 17.5Z" stroke="#FF9900"/>
<g clip-path="url(#clip0_1_233)">
<path d="M26.4242 13.4196C26.2061 12.5984 25.5635 11.9517 24.7476 11.7322C23.2688 11.3334 17.3389 11.3334 17.3389 11.3334C17.3389 11.3334 11.4091 11.3334 9.9302 11.7322C9.11433 11.9517 8.47176 12.5984 8.25367 13.4196C7.85742 14.908 7.85742 18.0135 7.85742 18.0135C7.85742 18.0135 7.85742 21.119 8.25367 22.6074C8.47176 23.4286 9.11433 24.0484 9.9302 24.2679C11.4091 24.6667 17.3389 24.6667 17.3389 24.6667C17.3389 24.6667 23.2688 24.6667 24.7476 24.2679C25.5635 24.0484 26.2061 23.4286 26.4242 22.6074C26.8204 21.119 26.8204 18.0135 26.8204 18.0135C26.8204 18.0135 26.8204 14.908 26.4242 13.4196ZM15.3995 20.8331V15.194L20.3557 18.0136L15.3995 20.8331Z" fill="#FF9900"/>
</g>
<defs>
<clipPath id="clip0_1_233">
<rect width="20" height="20" fill="white" transform="translate(7.33887 8)"/>
</clipPath>
</defs>
</svg>
