<svg width="22" height="25" viewBox="0 0 22 25" fill="none" xmlns="http://www.w3.org/2000/svg">
<path d="M15.5459 10.1562H13.6372C13.5645 11.4761 13.3179 12.6636 12.9434 13.5942C14.2964 12.9478 15.2881 11.6807 15.5459 10.1562ZM15.5459 8.59375C15.2876 7.06934 14.2964 5.80225 12.9434 5.15576C13.3184 6.08643 13.5645 7.27393 13.6372 8.59375H15.5459ZM10.9375 4.75146C10.562 5.11523 9.92334 6.43213 9.79346 8.59375H12.082C11.9517 6.43262 11.313 5.11523 10.9375 4.75146ZM8.93164 5.15576C7.57861 5.80225 6.58691 7.06934 6.3291 8.59375H8.23779C8.31055 7.27393 8.55664 6.08643 8.93164 5.15576ZM8.93164 13.5942C8.55664 12.6636 8.31055 11.4761 8.23779 10.1562H6.3291C6.58691 11.6807 7.57861 12.9478 8.93164 13.5942ZM12.0815 10.1562H9.79297C9.92285 12.3174 10.5615 13.6348 10.937 13.9985C11.313 13.6348 11.9517 12.3174 12.0815 10.1562ZM21.875 17.5V1.25C21.875 0.46875 21.4062 0 20.625 0H4.6875C2.03125 0 0 2.03125 0 4.6875V20.3125C0 22.9688 2.03125 25 4.6875 25H20.625C21.25 25 21.875 24.5312 21.875 23.75V22.9688C21.875 22.6562 21.7188 22.3438 21.4062 22.0312C21.25 21.25 21.25 19.0625 21.4062 18.4375C21.7188 18.2812 21.875 17.9688 21.875 17.5ZM10.9375 3.125C14.3892 3.125 17.1875 5.92334 17.1875 9.375C17.1875 12.8267 14.3892 15.625 10.9375 15.625C7.48584 15.625 4.6875 12.8267 4.6875 9.375C4.6875 5.92334 7.48584 3.125 10.9375 3.125ZM18.75 21.875H4.6875C3.75 21.875 3.125 21.25 3.125 20.3125C3.125 19.375 3.90625 18.75 4.6875 18.75H18.75V21.875Z" fill="#FF9900"/>
</svg>
