<svg width="9" height="7" viewBox="0 0 9 7" fill="none" xmlns="http://www.w3.org/2000/svg">
<path d="M6.8422 5.62925H1.45137C1.33734 5.62925 1.24404 5.71187 1.24404 5.81284V6.18003C1.24404 6.281 1.33734 6.36362 1.45137 6.36362H6.8422C6.95623 6.36362 7.04953 6.281 7.04953 6.18003V5.81284C7.04953 5.71187 6.95623 5.62925 6.8422 5.62925ZM7.67155 1.95744C7.32815 1.95744 7.04953 2.20414 7.04953 2.50821C7.04953 2.58968 7.07027 2.66541 7.10655 2.7354L6.16834 3.23339C5.96878 3.33896 5.7109 3.27929 5.59557 3.10029L4.53943 1.46404C4.67809 1.36306 4.7688 1.2116 4.7688 1.03948C4.7688 0.735409 4.49019 0.488708 4.14679 0.488708C3.80338 0.488708 3.52477 0.735409 3.52477 1.03948C3.52477 1.2116 3.61548 1.36306 3.75414 1.46404L2.698 3.10029C2.58267 3.27929 2.3235 3.33896 2.12523 3.23339L1.18831 2.7354C1.2233 2.66656 1.24533 2.58968 1.24533 2.50821C1.24533 2.20414 0.966719 1.95744 0.623314 1.95744C0.279908 1.95744 0 2.20414 0 2.50821C0 2.81228 0.278612 3.05898 0.622018 3.05898C0.65571 3.05898 0.689403 3.05439 0.7218 3.0498L1.65871 5.26207H6.63486L7.57177 3.0498C7.60417 3.05439 7.63786 3.05898 7.67155 3.05898C8.01496 3.05898 8.29357 2.81228 8.29357 2.50821C8.29357 2.20414 8.01496 1.95744 7.67155 1.95744Z" fill="#0088B4"/>
</svg>
