<svg width="25" height="20" viewBox="0 0 25 20" fill="none" xmlns="http://www.w3.org/2000/svg">
<path d="M0 17.3611C0 18.5113 0.93316 19.4444 2.08333 19.4444H22.9167C24.0668 19.4444 25 18.5113 25 17.3611V9.72222H0V17.3611ZM8.33333 14.4097C8.33333 14.1233 8.56771 13.8889 8.85417 13.8889H14.7569C15.0434 13.8889 15.2778 14.1233 15.2778 14.4097V16.1458C15.2778 16.4323 15.0434 16.6667 14.7569 16.6667H8.85417C8.56771 16.6667 8.33333 16.4323 8.33333 16.1458V14.4097ZM2.77778 14.4097C2.77778 14.1233 3.01215 13.8889 3.29861 13.8889H6.42361C6.71007 13.8889 6.94444 14.1233 6.94444 14.4097V16.1458C6.94444 16.4323 6.71007 16.6667 6.42361 16.6667H3.29861C3.01215 16.6667 2.77778 16.4323 2.77778 16.1458V14.4097ZM25 2.08333V4.16667H0V2.08333C0 0.93316 0.93316 0 2.08333 0H22.9167C24.0668 0 25 0.93316 25 2.08333Z" fill="white"/>
</svg>
