<svg width="9" height="8" viewBox="0 0 9 8" fill="none" xmlns="http://www.w3.org/2000/svg">
<path d="M3.64708 2.13352L2.52027 0.622701C2.47394 0.56055 2.40839 0.509113 2.33001 0.4734C2.25162 0.437687 2.16308 0.418916 2.073 0.418915H0.261275C0.0501917 0.418915 -0.0733611 0.60998 0.0475837 0.749116L1.86127 2.83366C2.3457 2.46949 2.96183 2.21955 3.64708 2.13352ZM8.08422 0.418915H6.27249C6.08928 0.418915 5.91944 0.496285 5.82522 0.622701L4.69842 2.13352C5.38366 2.21955 5.9998 2.46949 6.48423 2.83353L8.29791 0.749116C8.41886 0.60998 8.2953 0.418915 8.08422 0.418915ZM4.17275 2.5171C2.5884 2.5171 1.30398 3.55045 1.30398 4.8251C1.30398 6.09974 2.5884 7.1331 4.17275 7.1331C5.75709 7.1331 7.04152 6.09974 7.04152 4.8251C7.04152 3.55045 5.75709 2.5171 4.17275 2.5171ZM5.68081 4.57935L5.06256 5.06403L5.20877 5.74882C5.23484 5.87156 5.07413 5.96533 4.93737 5.90736L4.17275 5.58411L3.40828 5.90736C3.27137 5.96572 3.11081 5.87143 3.13689 5.74882L3.2831 5.06403L2.66485 4.57935C2.55368 4.49227 2.61513 4.34029 2.76835 4.32245L3.62295 4.22226L4.00486 3.5991C4.03925 3.54298 4.10575 3.51531 4.17242 3.51531C4.23941 3.51531 4.30641 3.54337 4.3408 3.5991L4.7227 4.22226L5.5773 4.32245C5.73052 4.34029 5.79197 4.49227 5.68081 4.57935Z" fill="#DD7903"/>
</svg>
