<svg width="9" height="8" viewBox="0 0 9 8" fill="none" xmlns="http://www.w3.org/2000/svg">
<path d="M3.51942 2.7066L2.43205 1.19578C2.38734 1.13362 2.32409 1.08219 2.24845 1.04647C2.17281 1.01076 2.08737 0.99199 2.00044 0.991989H0.252129C0.0484349 0.991989 -0.0707932 1.18305 0.0459182 1.32219L1.79612 3.40673C2.26359 3.04257 2.85816 2.79262 3.51942 2.7066ZM7.80125 0.991989H6.05293C5.87614 0.991989 5.71224 1.06936 5.62132 1.19578L4.53396 2.7066C5.19522 2.79262 5.78978 3.04257 6.25726 3.4066L8.00746 1.32219C8.12417 1.18305 8.00494 0.991989 7.80125 0.991989ZM4.02669 3.09017C2.4978 3.09017 1.25833 4.12353 1.25833 5.39817C1.25833 6.67282 2.4978 7.70617 4.02669 7.70617C5.55557 7.70617 6.79504 6.67282 6.79504 5.39817C6.79504 4.12353 5.55557 3.09017 4.02669 3.09017ZM5.48196 5.15242L4.88535 5.6371L5.02644 6.3219C5.05161 6.44464 4.89652 6.5384 4.76455 6.48044L4.02669 6.15719L3.28898 6.48044C3.15686 6.53879 3.00192 6.44451 3.02709 6.3219L3.16818 5.6371L2.57157 5.15242C2.4643 5.06535 2.5236 4.91336 2.67145 4.89553L3.49614 4.79534L3.86468 4.17218C3.89786 4.11605 3.96204 4.08838 4.02637 4.08838C4.09102 4.08838 4.15567 4.11644 4.18886 4.17218L4.55739 4.79534L5.38208 4.89553C5.52994 4.91336 5.58923 5.06535 5.48196 5.15242Z" fill="#919191"/>
</svg>
