<svg width="9" height="7" viewBox="0 0 9 7" fill="none" xmlns="http://www.w3.org/2000/svg">
<path d="M3.54515 1.74369L2.44984 0.232869C2.4048 0.170718 2.34108 0.119281 2.26489 0.0835683C2.1887 0.0478553 2.10263 0.0290841 2.01507 0.0290833H0.253973C0.0487891 0.0290833 -0.0713109 0.220149 0.0462539 0.359285L1.80925 2.44383C2.28014 2.07966 2.87906 1.82972 3.54515 1.74369ZM7.85829 0.0290833H6.0972C5.91911 0.0290833 5.75401 0.106454 5.66243 0.232869L4.56711 1.74369C5.23321 1.82972 5.83212 2.07966 6.30302 2.4437L8.06601 0.359285C8.18358 0.220149 8.06348 0.0290833 7.85829 0.0290833ZM4.05613 2.12726C2.51607 2.12726 1.26753 3.16062 1.26753 4.43527C1.26753 5.70991 2.51607 6.74327 4.05613 6.74327C5.5962 6.74327 6.84473 5.70991 6.84473 4.43527C6.84473 3.16062 5.5962 2.12726 4.05613 2.12726ZM5.52205 4.18952L4.92107 4.6742L5.0632 5.35899C5.08855 5.48173 4.93232 5.5755 4.79939 5.51753L4.05613 5.19428L3.31304 5.51753C3.17994 5.57589 3.02388 5.4816 3.04923 5.35899L3.19135 4.6742L2.59038 4.18952C2.48232 4.10244 2.54205 3.95045 2.69099 3.93262L3.5217 3.83243L3.89294 3.20927C3.92637 3.15314 3.99101 3.12547 4.05582 3.12547C4.12094 3.12547 4.18606 3.15354 4.21949 3.20927L4.59072 3.83243L5.42144 3.93262C5.57037 3.95045 5.63011 4.10244 5.52205 4.18952Z" fill="#823E00"/>
</svg>
