<svg width="9" height="7" viewBox="0 0 9 7" fill="none" xmlns="http://www.w3.org/2000/svg">
<path d="M3.51942 2.0765L2.43205 0.835377C2.38734 0.784321 2.32409 0.742066 2.24845 0.712728C2.17281 0.68339 2.08737 0.667969 2.00044 0.667969H0.252129C0.0484349 0.667969 -0.0707932 0.824927 0.0459182 0.939226L1.79612 2.65166C2.26359 2.3525 2.85816 2.14717 3.51942 2.0765ZM7.80125 0.667969H6.05293C5.87614 0.667969 5.71224 0.731528 5.62132 0.835377L4.53396 2.0765C5.19522 2.14717 5.78978 2.3525 6.25726 2.65155L8.00746 0.939226C8.12417 0.824927 8.00494 0.667969 7.80125 0.667969ZM4.02669 2.39161C2.4978 2.39161 1.25833 3.2405 1.25833 4.28761C1.25833 5.33471 2.4978 6.18361 4.02669 6.18361C5.55557 6.18361 6.79504 5.33471 6.79504 4.28761C6.79504 3.2405 5.55557 2.39161 4.02669 2.39161ZM5.48196 4.08572L4.88535 4.48388L5.02644 5.04644C5.05161 5.14727 4.89652 5.22429 4.76455 5.17668L4.02669 4.91113L3.28898 5.17668C3.15686 5.22462 3.00192 5.14716 3.02709 5.04644L3.16818 4.48388L2.57157 4.08572C2.4643 4.01419 2.5236 3.88934 2.67145 3.87469L3.49614 3.79238L3.86468 3.28046C3.89786 3.23436 3.96204 3.21163 4.02637 3.21163C4.09102 3.21163 4.15567 3.23468 4.18886 3.28046L4.55739 3.79238L5.38208 3.87469C5.52994 3.88934 5.58923 4.01419 5.48196 4.08572Z" fill="#919191"/>
</svg>
