<svg width="25" height="25" viewBox="0 0 25 25" fill="none" xmlns="http://www.w3.org/2000/svg">
<path d="M10.9253 6.38428L7.54977 0.758789C7.41098 0.527373 7.21462 0.335849 6.97982 0.202873C6.74501 0.0698971 6.47977 3.31311e-06 6.20993 0H0.782679C0.150355 0 -0.219762 0.711426 0.142543 1.22949L5.57565 8.99121C7.02682 7.63525 8.87252 6.70459 10.9253 6.38428ZM24.2172 0H18.79C18.2412 0 17.7324 0.288086 17.4502 0.758789L14.0747 6.38428C16.1274 6.70459 17.9731 7.63525 19.4243 8.99072L24.8574 1.22949C25.2197 0.711426 24.8496 0 24.2172 0ZM12.5 7.8125C7.75387 7.8125 3.90621 11.6602 3.90621 16.4062C3.90621 21.1523 7.75387 25 12.5 25C17.2461 25 21.0937 21.1523 21.0937 16.4062C21.0937 11.6602 17.2461 7.8125 12.5 7.8125ZM17.0175 15.4912L15.1655 17.2959L15.6035 19.8457C15.6816 20.3027 15.2002 20.6519 14.7905 20.436L12.5 19.2324L10.2099 20.436C9.79977 20.6533 9.31881 20.3022 9.39694 19.8457L9.83492 17.2959L7.98287 15.4912C7.64987 15.167 7.83395 14.6011 8.29293 14.5347L10.853 14.1616L11.997 11.8413C12.1001 11.6323 12.2993 11.5293 12.499 11.5293C12.6997 11.5293 12.9004 11.6338 13.0034 11.8413L14.1474 14.1616L16.7075 14.5347C17.1665 14.6011 17.3505 15.167 17.0175 15.4912Z" fill="#919191"/>
</svg>
