<svg width="25" height="26" viewBox="0 0 25 26" fill="none" xmlns="http://www.w3.org/2000/svg">
<path d="M10.9253 6.63984L7.54977 0.992025C7.41098 0.75969 7.21462 0.567406 6.97982 0.433903C6.74501 0.300399 6.47977 0.230228 6.20993 0.230225H0.782679C0.150355 0.230225 -0.219762 0.944474 0.142543 1.4646L5.57565 9.25712C7.02682 7.89578 8.87252 6.96142 10.9253 6.63984ZM24.2172 0.230225H18.79C18.2412 0.230225 17.7324 0.519454 17.4502 0.992025L14.0747 6.63984C16.1274 6.96142 17.9731 7.89578 19.4243 9.25663L24.8574 1.4646C25.2197 0.944474 24.8496 0.230225 24.2172 0.230225ZM12.5 8.07373C7.75387 8.07373 3.90621 11.9367 3.90621 16.7016C3.90621 21.4665 7.75387 25.3294 12.5 25.3294C17.2461 25.3294 21.0937 21.4665 21.0937 16.7016C21.0937 11.9367 17.2461 8.07373 12.5 8.07373ZM17.0175 15.7829L15.1655 17.5948L15.6035 20.1547C15.6816 20.6135 15.2002 20.964 14.7905 20.7474L12.5 19.539L10.2099 20.7474C9.79977 20.9655 9.31881 20.613 9.39694 20.1547L9.83492 17.5948L7.98287 15.7829C7.64987 15.4574 7.83395 14.8892 8.29293 14.8226L10.853 14.448L11.997 12.1185C12.1001 11.9087 12.2993 11.8053 12.499 11.8053C12.6997 11.8053 12.9004 11.9102 13.0034 12.1185L14.1474 14.448L16.7075 14.8226C17.1665 14.8892 17.3505 15.4574 17.0175 15.7829Z" fill="#823E00"/>
</svg>
