<svg width="26" height="25" viewBox="0 0 26 25" fill="none" xmlns="http://www.w3.org/2000/svg">
<path d="M11.2394 6.38428L7.76683 0.758789C7.62405 0.527373 7.42204 0.335849 7.18049 0.202873C6.93893 0.0698971 6.66606 3.31311e-06 6.38846 0H0.805182C0.154678 0 -0.22608 0.711426 0.146641 1.22949L5.73595 8.99121C7.22884 7.63525 9.12761 6.70459 11.2394 6.38428ZM24.9135 0H19.3302C18.7656 0 18.2422 0.288086 17.9519 0.758789L14.4793 6.38428C16.5911 6.70459 18.4898 7.63525 19.9827 8.99072L25.572 1.22949C25.9448 0.711426 25.564 0 24.9135 0ZM12.8593 7.8125C7.9768 7.8125 4.01852 11.6602 4.01852 16.4062C4.01852 21.1523 7.9768 25 12.8593 25C17.7419 25 21.7002 21.1523 21.7002 16.4062C21.7002 11.6602 17.7419 7.8125 12.8593 7.8125ZM17.5068 15.4912L15.6015 17.2959L16.0521 19.8457C16.1325 20.3027 15.6372 20.6519 15.2157 20.436L12.8593 19.2324L10.5035 20.436C10.0815 20.6533 9.58673 20.3022 9.6671 19.8457L10.1177 17.2959L8.21238 15.4912C7.8698 15.167 8.05918 14.6011 8.53136 14.5347L11.165 14.1616L12.3419 11.8413C12.4479 11.6323 12.6529 11.5293 12.8583 11.5293C13.0648 11.5293 13.2712 11.6338 13.3772 11.8413L14.5542 14.1616L17.1878 14.5347C17.66 14.6011 17.8494 15.167 17.5068 15.4912Z" fill="#DD7903"/>
</svg>
